Coordinates
version=1
nRows=26
nColumns=24
inDegrees=yes

Units are S.I. units (second, meters, Newtons, ...)
Angles are in degrees.

endheader
time	pelvis_tilt	pelvis_list	pelvis_rotation	pelvis_tx	pelvis_ty	pelvis_tz	hip_flexion_r	hip_adduction_r	hip_rotation_r	knee_angle_r	ankle_angle_r	subtalar_angle_r	mtp_angle_r	hip_flexion_l	hip_adduction_l	hip_rotation_l	knee_angle_l	ankle_angle_l	subtalar_angle_l	mtp_angle_l	lumbar_extension	lumbar_bending	lumbar_rotation
      3.87500000	    -11.16679785	     -3.66512835	      5.97704164	     -1.78514013	     -0.05191334	     -0.29127611	     41.30073237	      0.65278860	     -4.88807712	    -17.28354284	     -0.37758343	      6.03255289	     14.07523264	     -4.45528128	     -1.66596431	      6.41063038	    -19.64759471	     23.78207727	     22.57321232	    -12.77808889	      9.94995095	     -1.58781817	    -18.07478624
      3.88000000	    -11.15941551	     -4.13551463	      6.29526563	     -1.77757483	     -0.05290124	     -0.29117405	     41.31908533	      0.89768769	     -5.50620155	    -18.08101364	     -0.89928790	      5.87205223	     13.94455675	     -4.30427156	     -2.36597132	      6.24250337	    -20.80531666	     23.66177646	     23.60921356	    -12.35745351	     10.02647933	     -1.05752828	    -18.50968014
      3.88500000	    -11.08392982	     -4.59557432	      6.41745662	     -1.76998715	     -0.05381644	     -0.29071701	     41.29494354	      1.28636831	     -5.98323800	    -18.88571030	     -1.68285359	      5.52407010	     14.07318326	     -4.20227415	     -3.13719238	      5.49127558	    -21.99907440	     23.41441530	     25.15573115	    -11.45358040	     10.02381687	     -0.50038112	    -18.69530255
      3.89000000	    -11.07301488	     -5.09625549	      6.59922530	     -1.76242275	     -0.05464446	     -0.29036861	     41.32007112	      1.65146052	     -6.52072205	    -19.64819815	     -2.61713312	      5.11615535	     14.29420563	     -3.98562603	     -3.94306894	      4.94298227	    -23.20805224	     22.92484840	     26.54292774	    -10.23680638	     10.09561287	      0.09004271	    -18.94267097
      3.89500000	    -11.05669396	     -5.58960552	      6.76226738	     -1.75481375	     -0.05526447	     -0.29003956	     41.31145478	      2.03108799	     -6.96659004	    -20.34407763	     -3.75692364	      4.47090649	     14.72604579	     -3.80481672	     -4.72564353	      4.54714385	    -24.23071510	     21.72254959	     27.60513192	     -7.37972871	     10.16597872	      0.68315063	    -19.20959423
      3.90000000	    -11.15817530	     -6.14152261	      6.97307646	     -1.74729916	     -0.05604506	     -0.28979606	     41.49272101	      2.36224928	     -7.66058172	    -21.19292668	     -4.51827161	      4.32026464	     14.62751612	     -3.32376941	     -5.60205416	      3.99556346	    -25.64381465	     21.12859052	     29.05376862	     -6.53694840	     10.36520049	      1.31989360	    -19.50856603
      3.90500000	    -11.11270211	     -6.61586891	      7.01447078	     -1.73972848	     -0.05643436	     -0.28918061	     41.47883543	      2.84318882	     -7.89042584	    -21.95344054	     -5.52775222	      3.55555995	     14.35391065	     -3.11541498	     -6.44159059	      3.33321187	    -26.67839453	     19.45591930	     30.41815832	     -2.83893551	     10.38161904	      1.90840740	    -19.61596573
      3.91000000	    -11.21836841	     -7.14841965	      6.98317505	     -1.73211412	     -0.05702532	     -0.28851585	     41.65611038	      3.37763373	     -8.16219183	    -22.76998240	     -6.35244350	      2.98822347	     13.95771386	     -2.64676599	     -7.35936511	      2.50990048	    -28.01125860	     18.24428546	     31.99734323	     -0.92894918	     10.58243007	      2.56298890	    -19.62240941
      3.91500000	    -11.23252248	     -7.62414007	      7.05343653	     -1.72455913	     -0.05734387	     -0.28794485	     41.71119800	      3.82164639	     -8.41965837	    -23.59127528	     -6.92977824	      2.46734195	     13.32143867	     -2.23829585	     -8.23508148	      1.85092522	    -29.24097470	     16.40933530	     33.43398616	      2.24070991	     10.66572320	      3.13373800	    -19.77735297
      3.92000000	    -11.27936470	     -8.08715188	      7.07867603	     -1.71696613	     -0.05764073	     -0.28734420	     41.79316905	      4.27641146	     -8.65272094	    -24.41232026	     -7.34611413	      2.01811246	     12.66444791	     -1.77507103	     -9.09512082	      1.24041294	    -30.50144660	     14.46585333	     34.81969546	      5.18164154	     10.78836481	      3.70319302	    -19.85515612
      3.92500000	    -11.31393861	     -8.54411318	      7.06682397	     -1.70932077	     -0.05786468	     -0.28665955	     41.83501269	      4.77512637	     -8.79778579	    -25.19757139	     -7.62205824	      1.53113246	     11.97902845	     -1.30407945	     -9.96240912	      0.65138342	    -31.78073794	     12.35213042	     36.17646345	      8.02053007	     10.90271773	      4.26663164	    -19.89736066
      3.93000000	    -11.33583195	     -8.96895040	      7.01481993	     -1.70165115	     -0.05803103	     -0.28596858	     41.84895890	      5.26361312	     -8.95940319	    -25.98330591	     -7.66876357	      1.22831095	     11.34999804	     -0.83601847	    -10.78855471	      0.10855330	    -33.04923311	     10.00253441	     37.40084289	     10.95859467	     10.99842066	      4.81308739	    -19.84694475
      3.93500000	    -11.35607453	     -9.37765731	      6.98318605	     -1.69400605	     -0.05813223	     -0.28516728	     41.80515098	      5.78268387	     -8.94380087	    -26.66631190	     -7.67075389	      0.69749062	     10.82396032	     -0.31312943	    -11.61025739	     -0.32576594	    -34.38726795	      7.59648996	     38.62223484	     13.35008418	     11.08833663	      5.30789970	    -19.89265670
      3.94000000	    -11.37032089	     -9.76270119	      6.91775872	     -1.68634460	     -0.05819311	     -0.28435240	     41.74118723	      6.28486806	     -9.04221711	    -27.34043469	     -7.51149162	      0.31637010	     10.43554471	      0.22031454	    -12.38910852	     -0.68389613	    -35.73072019	      5.03073890	     39.67494557	     15.57872162	     11.17283070	      5.78842708	    -19.84375610
      3.94500000	    -11.35472587	    -10.09217006	      6.81349929	     -1.67874269	     -0.05820315	     -0.28351982	     41.60906208	      6.77567557	     -9.02974245	    -27.97672783	     -7.15142466	      0.12402896	     10.22376344	      0.73895704	    -13.08911291	     -0.98850589	    -37.08794918	      2.36839173	     40.53156822	     17.58151398	     11.19998223	      6.22268776	    -19.75534362
      3.95000000	    -11.36966226	    -10.47465208	      6.72208075	     -1.67119127	     -0.05824084	     -0.28269366	     41.46946469	      7.31389829	     -9.02912257	    -28.51788404	     -6.78006601	     -0.13155427	     10.16354862	      1.37258000	    -13.82199639	     -1.16771508	    -38.56950741	     -0.15862300	     41.18102710	     18.80033624	     11.26953022	      6.70135325	    -19.71492005
      3.95500000	    -11.35603119	    -10.76601273	      6.57711749	     -1.66365858	     -0.05818091	     -0.28180646	     41.26540405	      7.80761984	     -8.99229726	    -29.04051787	     -6.25013670	     -0.22704993	     10.22117016	      1.95865344	    -14.43071459	     -1.30126208	    -39.99964558	     -2.78176776	     41.64582313	     19.88084784	     11.28890572	      7.09164077	    -19.58289939
      3.96000000	    -11.35433153	    -11.05690265	      6.40404033	     -1.65614940	     -0.05811676	     -0.28091025	     41.03665124	      8.31416540	     -8.96437721	    -29.50203032	     -5.65733705	     -0.26088368	     10.40673642	      2.59506200	    -15.01229771	     -1.38340204	    -41.49972752	     -5.21077265	     41.89859904	     20.26126849	     11.32453016	      7.48127834	    -19.42705768
      3.96500000	    -11.31032600	    -11.33594925	      6.19773418	     -1.64875702	     -0.05796928	     -0.28005946	     40.72459632	      8.84049842	     -8.88221649	    -29.89387311	     -5.04092691	     -0.25742055	     10.66055548	      3.22659204	    -15.54076848	     -1.43365329	    -43.07918787	     -7.38185205	     41.73552795	     19.93162738	     11.29044125	      7.88555411	    -19.21690626
      3.97000000	    -11.30910775	    -11.64619054	      5.99557641	     -1.64143689	     -0.05782198	     -0.27916131	     40.42688459	      9.38547377	     -8.84544226	    -30.21468558	     -4.43639905	     -0.23393454	     10.91625329	      3.96433992	    -16.09333623	     -1.44234906	    -44.67396365	     -9.47220368	     41.43793240	     19.65653611	     11.30559680	      8.30020692	    -19.01133413
      3.97500000	    -11.29874464	    -11.93840828	      5.77997517	     -1.63416502	     -0.05761943	     -0.27821487	     40.08226057	      9.93261824	     -8.78781107	    -30.47769867	     -3.80240065	     -0.20886676	     11.18476979	      4.72049313	    -16.61234927	     -1.44832266	    -46.26791239	    -11.39165822	     40.87764855	     19.28325415	     11.30869310	      8.68566213	    -18.80621663
      3.98000000	    -11.30188320	    -12.24054935	      5.55414770	     -1.62696238	     -0.05737605	     -0.27728674	     39.71911456	     10.48637762	     -8.74546052	    -30.67645589	     -3.18404022	     -0.13251358	     11.46390414	      5.53391480	    -17.12392956	     -1.45339104	    -47.87646526	    -13.09992412	     40.04886818	     18.86125209	     11.32374201	      9.08089852	    -18.57782838
      3.98500000	    -11.32142651	    -12.53105496	      5.32252535	     -1.61985683	     -0.05709143	     -0.27639761	     39.34109428	     11.02092051	     -8.71926662	    -30.81381023	     -2.57891218	     -0.01716205	     11.75813890	      6.40752159	    -17.60201474	     -1.45442812	    -49.49770484	    -14.54198053	     38.96558570	     18.39148283	     11.34860265	      9.47170455	    -18.33403129
      3.99000000	    -11.33917081	    -12.81143431	      5.08856579	     -1.61278272	     -0.05673902	     -0.27549413	     38.92621309	     11.55020466	     -8.68591549	    -30.89390724	     -1.98617040	      0.11839212	     12.05637527	      7.30466802	    -18.05877398	     -1.46172109	    -51.10389574	    -15.68964165	     37.66650056	     17.89385927	     11.37488806	      9.83871235	    -18.08477483
      3.99500000	    -11.48842038	    -12.99686611	      4.87086168	     -1.60588560	     -0.05645145	     -0.27469780	     38.64357145	     11.92188914	     -8.69451991	    -30.97595199	     -1.39688897	      0.40935943	     12.56869048	      8.41214860	    -18.34737841	     -1.36636766	    -52.77165466	    -16.38368682	     36.17569994	     16.90737986	     11.52462276	     10.08617224	    -17.86125499
      4.00000000	    -11.48340063	    -13.23782329	      4.65226490	     -1.59887888	     -0.05591629	     -0.27385880	     38.12347887	     12.41027981	     -8.65482005	    -30.91405422	     -0.87125435	      0.51420407	     12.91647468	      9.33316768	    -18.72531621	     -1.35058017	    -54.33801901	    -16.83517150	     34.56041705	     16.20212829	     11.53226221	     10.41044633	    -17.56810690
